<svg class="icon" viewBox="0 0 1024 1024" version="1.1" xmlns="http://www.w3.org/2000/svg"><path d="M320 213.333333a42.666667 42.666667 0 0 0-42.666667 42.666667v512a42.666667 42.666667 0 0 0 42.666667 42.666667h85.333333a42.666667 42.666667 0 0 0 42.666667-42.666667V256a42.666667 42.666667 0 0 0-42.666667-42.666667h-85.333333zM618.666667 213.333333a42.666667 42.666667 0 0 0-42.666667 42.666667v512a42.666667 42.666667 0 0 0 42.666667 42.666667h85.333333a42.666667 42.666667 0 0 0 42.666667-42.666667V256a42.666667 42.666667 0 0 0-42.666667-42.666667h-85.333333z" fill="#9f9f9f"></path></svg>