<svg class="icon" viewBox="0 0 1024 1024" version="1.1" xmlns="http://www.w3.org/2000/svg"><path d="M909.610667 854.485333l-259.712-259.669333a297.301333 297.301333 0 0 0 62.122666-182.826667 298.24 298.24 0 0 0-87.893333-212.053333 297.813333 297.813333 0 0 0-212.138667-87.936 298.24 298.24 0 0 0-212.053333 87.893333 297.6 297.6 0 0 0-87.936 212.096 298.24 298.24 0 0 0 87.893333 212.096 297.6 297.6 0 0 0 212.096 87.893334c66.986667 0 130.602667-21.76 182.698667-61.994667l259.712 259.626667a8.192 8.192 0 0 0 11.605333 0l43.605334-43.52a8.192 8.192 0 0 0 0-11.605334z m-339.2-284.074666a222.805333 222.805333 0 0 1-158.421334 65.578666 222.805333 222.805333 0 0 1-158.378666-65.578666 222.805333 222.805333 0 0 1-65.621334-158.421334c0-59.776 23.296-116.053333 65.621334-158.378666a222.805333 222.805333 0 0 1 158.378666-65.621334c59.818667 0 116.096 23.210667 158.421334 65.621334a222.805333 222.805333 0 0 1 65.578666 158.378666 222.634667 222.634667 0 0 1-65.578666 158.421334z" fill="#9f9f9f"></path></svg>